<svg width="17" height="17" viewBox="0 0 17 17" fill="none" xmlns="http://www.w3.org/2000/svg">
<path d="M2.79322 0.663868V1.32774H2.30528C2.00322 1.32774 1.7244 1.34765 1.58167 1.37753C0.834814 1.53353 0.210778 2.15757 0.0547691 2.90442C-0.0182564 3.25295 -0.0182564 15.0698 0.0547691 15.4183C0.210778 16.1652 0.834814 16.7892 1.58167 16.9452C1.9302 17.0183 15.0748 17.0183 15.4233 16.9452C16.1702 16.7892 16.7942 16.1652 16.9502 15.4183C17.0232 15.0698 17.0232 3.25295 16.9502 2.90442C16.7942 2.15757 16.1702 1.53353 15.4233 1.37753C15.2806 1.34765 15.0018 1.32774 14.703 1.32774H14.2118V0.663868V-1.14902e-07H13.5479H12.884V0.663868V1.32774H8.50249H4.12096V0.663868V-1.14902e-07H3.45709H2.79322V0.663868ZM2.79322 3.31934V3.98321H3.45709H4.12096V3.31934V2.65547H8.50249H12.884V3.31934V3.98321H13.5479H14.2118V3.31602V2.64883L14.7196 2.66211C15.1976 2.67207 15.2374 2.67539 15.3503 2.75505C15.42 2.80152 15.5163 2.89778 15.566 2.96749L15.6557 3.09694L15.6656 4.00644L15.6756 4.91262H8.50581H1.33271V4.07283C1.33271 3.61144 1.34931 3.18325 1.36591 3.11354C1.40906 2.96749 1.63477 2.73182 1.77751 2.69198C1.83394 2.67539 2.0862 2.65879 2.33847 2.65879L2.79322 2.65547V3.31934ZM15.6656 10.7314L15.6557 15.2258L15.566 15.3553C15.5163 15.425 15.42 15.5212 15.3503 15.5677L15.2275 15.6507H8.50249H1.77751L1.65469 15.5677C1.58498 15.5212 1.48872 15.425 1.43893 15.3553L1.34931 15.2258L1.33935 10.7314L1.33271 6.24036H8.50249H15.6723L15.6656 10.7314Z" fill="#F1F1F1"/>
<path d="M2.52771 8.29835V8.96222H3.19158H3.85545V8.29835V7.63448H3.19158H2.52771V8.29835Z" fill="#F1F1F1"/>
<path d="M5.18311 8.29835V8.96222H5.84697H6.51084V8.29835V7.63448H5.84697H5.18311V8.29835Z" fill="#F1F1F1"/>
<path d="M7.83862 8.29835V8.96222H8.50249H9.16636V8.29835V7.63448H8.50249H7.83862V8.29835Z" fill="#F1F1F1"/>
<path d="M10.4941 8.29835V8.96222H11.158H11.8219V8.29835V7.63448H11.158H10.4941V8.29835Z" fill="#F1F1F1"/>
<path d="M13.1495 8.29835V8.96222H13.8134H14.4773V8.29835V7.63448H13.8134H13.1495V8.29835Z" fill="#F1F1F1"/>
<path d="M2.52771 10.9538V11.6177H3.19158H3.85545V10.9538V10.29H3.19158H2.52771V10.9538Z" fill="#F1F1F1"/>
<path d="M5.18311 10.9538V11.6177H5.84697H6.51084V10.9538V10.29H5.84697H5.18311V10.9538Z" fill="#F1F1F1"/>
<path d="M7.83862 10.9538V11.6177H8.50249H9.16636V10.9538V10.29H8.50249H7.83862V10.9538Z" fill="#F1F1F1"/>
<path d="M10.4941 10.9538V11.6177H11.158H11.8219V10.9538V10.29H11.158H10.4941V10.9538Z" fill="#F1F1F1"/>
<path d="M13.1495 10.9538V11.6177H13.8134H14.4773V10.9538V10.29H13.8134H13.1495V10.9538Z" fill="#F1F1F1"/>
<path d="M2.52771 13.6093V14.2732H3.19158H3.85545V13.6093V12.9454H3.19158H2.52771V13.6093Z" fill="#F1F1F1"/>
<path d="M5.18311 13.6093V14.2732H5.84697H6.51084V13.6093V12.9454H5.84697H5.18311V13.6093Z" fill="#F1F1F1"/>
<path d="M7.83862 13.6093V14.2732H8.50249H9.16636V13.6093V12.9454H8.50249H7.83862V13.6093Z" fill="#F1F1F1"/>
<path d="M10.4941 13.6093V14.2732H11.158H11.8219V13.6093V12.9454H11.158H10.4941V13.6093Z" fill="#F1F1F1"/>
</svg>
