<svg width="20" height="20" viewBox="0 0 20 20" fill="none" xmlns="http://www.w3.org/2000/svg">
<path d="M8.96465 0.0512077C7.86832 0.166611 6.60851 0.532055 5.59873 1.02733C2.45881 2.57084 0.381556 5.58574 0.0401554 9.10073C-0.0656307 10.2067 0.0449638 11.9425 0.285387 12.885C0.472917 13.6159 0.852785 14.515 1.17976 14.9959C1.24227 15.0921 1.29516 15.1978 1.29516 15.2411C1.29516 15.2796 1.00185 16.1692 0.641213 17.2126C0.0930485 18.8138 -0.00792918 19.1456 0.0113046 19.3235C0.0497723 19.6649 0.314238 19.939 0.65083 19.9871C0.795083 20.0063 1.35767 19.8717 3.00697 19.4293C4.20428 19.1071 5.21406 18.8475 5.25252 18.8475C5.29099 18.8475 5.52661 18.9436 5.78145 19.0638C7.32978 19.7995 9.23874 20.1265 10.965 19.9534C15.7253 19.4726 19.4711 15.7268 19.952 10.9664C20.327 7.22543 18.4806 3.49406 15.2733 1.50336C13.4125 0.354142 11.1285 -0.17479 8.96465 0.0512077ZM10.888 1.58511C13.4173 1.86881 15.6436 3.21998 17.0573 5.34051C17.942 6.66284 18.4614 8.38427 18.4614 9.99991C18.4614 13.9669 15.6292 17.4626 11.768 18.2705C9.83018 18.6744 7.92122 18.4243 6.18536 17.5444C5.68048 17.2847 5.56507 17.2463 5.35831 17.2511C5.22848 17.2559 4.41585 17.453 3.55514 17.6838C2.69442 17.9194 1.98758 18.107 1.97796 18.1022C1.97316 18.0973 2.18473 17.4578 2.44919 16.6837C2.74251 15.8326 2.93004 15.2027 2.93004 15.0873C2.93004 14.8661 2.906 14.818 2.5646 14.2987C1.81928 13.1735 1.56924 12.1493 1.56444 10.2163C1.55963 9.21613 1.57405 8.99013 1.67022 8.49967C2.17992 5.82136 3.83403 3.63351 6.27192 2.41216C7.66156 1.71494 9.34933 1.41681 10.888 1.58511Z" fill="#B1B1B4"/>
</svg>
