<svg width="17" height="20" viewBox="0 0 17 20" fill="none" xmlns="http://www.w3.org/2000/svg">
<path d="M7.65799 0.00878334C4.57495 0.458733 2.31664 2.48561 1.62576 5.41659C1.5394 5.78243 1.53508 5.96746 1.50485 8.4569C1.47463 11.3164 1.46599 11.4257 1.21987 12.1869C1.06874 12.6536 0.878745 13.0531 0.533305 13.604C0.13605 14.2516 0.0367363 14.4787 0.00651032 14.8193C-0.0712135 15.7108 0.554895 16.5097 1.46167 16.6779C1.77689 16.7368 15.2231 16.7368 15.5383 16.6779C16.4451 16.5097 17.0712 15.7108 16.9935 14.8193C16.9633 14.4787 16.864 14.2516 16.4667 13.604C16.1213 13.0531 15.9313 12.6536 15.7801 12.1869C15.534 11.4257 15.5254 11.3164 15.4951 8.47793C15.4692 5.98849 15.4606 5.82869 15.3742 5.43761C14.8172 2.99022 13.09 1.09371 10.7022 0.315758C9.9638 0.0760651 9.60109 0.0213985 8.65113 0.00457954C8.17615 -0.00383186 7.7314 0.00037384 7.65799 0.00878334ZM9.51473 1.27032C10.2315 1.38386 11.0476 1.70345 11.7169 2.13658C12.2264 2.46458 12.9648 3.19207 13.3146 3.71771C13.7507 4.36951 14.0357 5.05915 14.1868 5.82869C14.2429 6.12305 14.2602 6.6529 14.2861 8.83536C14.3163 11.3332 14.3207 11.5098 14.4113 11.8925C14.6013 12.7293 14.8863 13.3937 15.4649 14.3357C15.7456 14.7982 15.7629 14.8403 15.7413 15.0211C15.7283 15.1641 15.6851 15.2524 15.5858 15.3491L15.452 15.4795H8.5H1.54803L1.41418 15.3491C1.31486 15.2524 1.27168 15.1641 1.25873 15.0211C1.23714 14.8403 1.25441 14.7982 1.53508 14.3357C2.11801 13.3811 2.39436 12.7419 2.58867 11.8799C2.68367 11.4594 2.68798 11.3458 2.71389 8.81434C2.74412 5.93802 2.75275 5.82869 3.02047 5.05074C3.31841 4.18448 3.72862 3.53689 4.4195 2.85987C5.77967 1.51843 7.56731 0.959145 9.51473 1.27032Z" fill="#B1B1B4"/>
<path d="M5.54216 17.7713C5.28308 17.9395 5.1924 18.2675 5.33058 18.5534C5.42989 18.7553 5.93078 19.201 6.33667 19.4449C6.71233 19.6678 7.31254 19.8823 7.76592 19.9537C7.92137 19.979 8.24954 20 8.49998 20C8.75043 20 9.07859 19.979 9.23404 19.9537C9.66152 19.8865 10.2747 19.6762 10.6374 19.4659C11.0131 19.2515 11.5658 18.7595 11.6694 18.5534C11.8723 18.1413 11.5917 17.6872 11.1383 17.6872C10.8965 17.6872 10.8231 17.7292 10.4604 18.0698C9.93787 18.5618 9.30313 18.7931 8.49998 18.7931C7.69684 18.7931 7.06209 18.5618 6.53961 18.0698C6.37121 17.9143 6.18986 17.7629 6.13804 17.7334C5.99123 17.6577 5.68897 17.6788 5.54216 17.7713Z" fill="#B1B1B4"/>
</svg>
