<svg width="18" height="20" viewBox="0 0 18 20" fill="none" xmlns="http://www.w3.org/2000/svg">
<path d="M7.76867 0.0561438C6.25289 0.344448 4.95989 1.2181 4.15613 2.49799C3.10338 4.17103 3.06407 6.28526 4.05129 8.00198C5.14772 9.90654 7.31874 10.9549 9.48976 10.6273C11.5865 10.3128 13.3338 8.74021 13.8667 6.69151C14.2555 5.18883 13.9978 3.65121 13.1329 2.35821C12.3859 1.23994 11.3113 0.4886 9.96153 0.134772C9.43297 -0.00501156 8.3016 -0.0443258 7.76867 0.0561438ZM9.67322 1.4933C10.8308 1.81218 11.77 2.60283 12.2723 3.67305C12.5344 4.23219 12.6349 4.70832 12.6349 5.36356C12.6305 5.94454 12.5563 6.32021 12.3422 6.84876C11.901 7.94956 10.8614 8.85379 9.67322 9.17267C9.17088 9.30809 8.20549 9.30372 7.70751 9.1683C6.51061 8.84505 5.47971 7.94956 5.03852 6.84876C4.82447 6.32021 4.75021 5.94454 4.74584 5.36356C4.74148 4.30208 5.09967 3.38475 5.80296 2.63778C6.37957 2.03059 7.10906 1.61998 7.90408 1.44961C8.28412 1.37099 9.31503 1.39719 9.67322 1.4933Z" fill="#B1B1B4"/>
<path d="M7.92585 12.1169C7.85595 12.1256 7.60696 12.1562 7.37981 12.1824C6.09118 12.3265 4.59288 12.842 3.50518 13.5234C1.94572 14.4888 0.809975 15.8692 0.307627 17.4068C-0.00251799 18.3416 -0.0942511 19.4293 0.106688 19.7001C0.237735 19.8749 0.482357 19.9972 0.705138 19.9972C1.11138 19.9972 1.39532 19.6433 1.39532 19.141C1.39532 18.5294 1.64868 17.599 1.9763 17.018C2.69706 15.7338 3.91143 14.7116 5.43158 14.1088C8.02195 13.0822 11.1278 13.3662 13.3425 14.8339C14.9281 15.8823 15.8586 17.3588 15.9765 19.0187C16.0027 19.3769 16.0377 19.5429 16.0988 19.6521C16.3653 20.1064 17.0118 20.1195 17.2739 19.6696C17.4049 19.4468 17.418 19.0886 17.3132 18.3897C16.8371 15.1703 13.7007 12.5712 9.79109 12.1562C9.25379 12.0994 8.27094 12.0775 7.92585 12.1169Z" fill="#B1B1B4"/>
</svg>
